<svg width="27" height="48" viewBox="0 0 47 48" fill="none" xmlns="http://www.w3.org/2000/svg">
<path fill-rule="evenodd" clip-rule="evenodd" d="M30.3542 28H28.8071L28.2588 27.46C30.1779 25.18 31.3333 22.22 31.3333 19C31.3333 11.82 25.6346 6 18.6042 6C11.5738 6 5.875 11.82 5.875 19C5.875 26.18 11.5738 32 18.6042 32C21.7571 32 24.6554 30.82 26.8879 28.86L27.4167 29.42V31L37.2083 40.98L40.1263 38L30.3542 28ZM18.6042 28C13.7279 28 9.79167 23.98 9.79167 19C9.79167 14.02 13.7279 10 18.6042 10C23.4804 10 27.4167 14.02 27.4167 19C27.4167 23.98 23.4804 28 18.6042 28Z" fill="#F3EDFC" fill-opacity="0.87"/>
</svg>
